<svg width="1648" height="254" viewBox="0 0 1648 254" fill="none" xmlns="http://www.w3.org/2000/svg">
<path d="M175.497 97.0915L112.515 34.1237C111.95 33.5585 111.28 33.1101 110.542 32.8043C109.804 32.4985 109.013 32.3412 108.214 32.3416H22.3557C19.4106 32.2826 16.4847 32.8275 13.7582 33.9426C11.0317 35.0577 8.56247 36.7193 6.50271 38.8252C2.16438 43.1635 -0.00318176 48.2758 3.50543e-06 54.1622V231.957C3.50543e-06 237.853 2.16757 242.965 6.50271 247.294C10.8378 251.623 15.9486 253.789 21.835 253.792H155.444C161.33 253.792 166.441 251.626 170.776 247.294C175.111 242.962 177.277 237.85 177.274 231.957V101.387C177.275 100.589 177.118 99.7993 176.813 99.0623C176.508 98.3252 176.061 97.6555 175.497 97.0915V97.0915ZM61.3959 100.192C61.3959 93.2931 64.046 87.5788 69.3463 83.0493C73.0675 79.8992 77.7173 78.0533 82.5858 77.7936C89.4087 77.4369 95.1533 79.587 99.8197 84.2438C104.148 88.5758 106.313 93.8983 106.313 100.212V145.124C106.38 150.389 104.529 155.5 101.105 159.5C98.8139 162.198 95.927 164.325 92.6723 165.715C89.4177 167.105 85.8844 167.719 82.3517 167.508C76.9323 167.171 71.837 164.811 68.0754 160.895C63.632 156.458 61.4102 151.203 61.4102 145.128L61.3959 100.192ZM136.294 149.696C135.339 160.437 131.018 169.962 123.332 178.273C115.416 186.819 106.02 192.272 95.1421 194.632C94.1482 194.825 93.2511 195.355 92.6019 196.132C91.9527 196.909 91.5911 197.886 91.5778 198.899V215.454C91.5778 216.032 91.464 216.604 91.2428 217.137C91.0216 217.671 90.6974 218.156 90.2887 218.564C89.88 218.972 89.3949 219.296 88.861 219.517C88.3272 219.737 87.7551 219.851 87.1774 219.85H80.8849C80.3073 219.851 79.7352 219.737 79.2013 219.517C78.6675 219.296 78.1823 218.972 77.7736 218.564C77.3649 218.156 77.0407 217.671 76.8195 217.137C76.5983 216.604 76.4845 216.032 76.4845 215.454V198.894C76.4713 197.883 76.1101 196.907 75.4618 196.131C74.8135 195.355 73.9177 194.825 72.9249 194.632C62.0473 192.266 52.6508 186.753 44.7354 178.096C37.1608 169.814 32.8607 160.486 31.8351 150.112C31.7585 149.489 31.814 148.858 31.9979 148.258C32.1819 147.658 32.4901 147.104 32.9026 146.632C33.3152 146.159 33.8226 145.779 34.392 145.516C34.9613 145.253 35.5797 145.113 36.2069 145.105H40.0531C41.1711 145.127 42.2403 145.567 43.0503 146.338C43.8602 147.109 44.3523 148.155 44.4296 149.271C45.3374 158.215 49.2441 165.834 56.1498 172.128C65.5144 180.668 76.7473 184.18 89.8482 182.664C95.5216 182.009 100.96 180.023 105.72 176.868C116.417 169.727 122.295 160.421 123.356 148.951C123.488 147.876 124.014 146.887 124.831 146.177C125.649 145.467 126.702 145.085 127.785 145.105H131.918C132.512 145.098 133.102 145.214 133.65 145.446C134.198 145.677 134.693 146.019 135.104 146.449C135.514 146.88 135.831 147.39 136.036 147.949C136.241 148.508 136.329 149.102 136.294 149.696V149.696Z" fill="#0066FF"/>
<path d="M326.664 244.829H313.286C309.527 244.829 305.854 243.708 302.735 241.609C299.617 239.51 297.195 236.529 295.78 233.046L244.656 107.297C243.49 104.428 243.046 101.316 243.364 98.2347C243.683 95.1537 244.754 92.1982 246.483 89.6284C248.212 87.0586 250.547 84.9533 253.281 83.4978C256.015 82.0422 259.065 81.2812 262.163 81.2815H263.916C267.775 81.2815 271.542 82.4626 274.71 84.6663C277.878 86.8699 280.295 89.9904 281.637 93.6084L315.995 186.3C316.324 187.188 316.919 187.954 317.698 188.494C318.476 189.034 319.402 189.322 320.35 189.318C321.298 189.314 322.221 189.02 322.996 188.474C323.771 187.928 324.359 187.157 324.681 186.266L358.184 93.7327C359.506 90.0807 361.921 86.9247 365.1 84.6942C368.28 82.4637 372.069 81.267 375.953 81.2671V81.2671C379.031 81.2672 382.062 82.0188 384.783 83.4568C387.505 84.8948 389.834 86.9756 391.568 89.5183C393.302 92.0611 394.389 94.9889 394.735 98.0473C395.08 101.106 394.673 104.202 393.55 107.068L344.256 232.812C342.873 236.352 340.454 239.392 337.315 241.536C334.177 243.68 330.465 244.827 326.664 244.829V244.829Z" fill="#0066FF"/>
<path d="M594.805 225.502V100.575C594.805 95.4539 596.839 90.543 600.46 86.9221C604.081 83.3013 608.991 81.2671 614.112 81.2671V81.2671C619.233 81.2671 624.145 83.3011 627.766 86.9219C631.388 90.5426 633.423 95.4535 633.424 100.575V225.502C633.424 228.038 632.925 230.55 631.954 232.893C630.984 235.236 629.561 237.365 627.768 239.158C625.975 240.951 623.846 242.374 621.503 243.344C619.16 244.315 616.648 244.814 614.112 244.814V244.814C608.991 244.813 604.08 242.778 600.459 239.156C596.839 235.535 594.805 230.623 594.805 225.502V225.502Z" fill="#0066FF"/>
<path d="M696.564 162.873C696.564 195.784 717.721 214.25 742.236 214.25C759.943 214.25 771.023 205.683 777.382 196.285C782.012 189.443 790.794 186.782 798.563 189.596C809.652 193.619 814.33 207.069 807.641 216.83C795.318 234.881 773.718 249.86 742.222 249.86C694.199 249.86 657.596 212.592 657.596 162.902C657.596 112.524 694.199 76.2599 741.209 76.2599C773.455 76.2599 795.056 91.0714 806.938 109.27C813.412 119.194 809.093 132.548 797.965 136.614L797.201 136.891C789.265 139.792 780.201 137.001 775.7 129.844C769.613 120.121 758.978 112.194 741.524 112.194C717.721 112.166 696.564 129.959 696.564 162.873Z" fill="#0066FF"/>
<path d="M968.799 194.059C970.55 194.617 972.155 195.556 973.499 196.81C974.843 198.063 975.893 199.599 976.571 201.307C977.25 203.015 977.541 204.853 977.424 206.687C977.307 208.521 976.784 210.306 975.894 211.914C963.949 233.777 940.537 249.85 907.809 249.85C863.48 249.85 824.196 217.609 824.196 162.2C824.196 110.484 862.481 76.2313 903.786 76.2313C954.159 76.2313 983.71 109.476 983.71 161.192V161.383C983.684 164.643 982.367 167.761 980.048 170.053C977.729 172.345 974.597 173.626 971.336 173.614H878.563C869.772 173.614 863.484 182.654 867.096 190.667C874.11 206.214 889.629 216.266 907.804 216.266C926.586 216.266 938.077 208.335 944.68 196.926C947.647 191.799 953.615 189.281 959.257 191.039L968.799 194.059ZM939.362 145.071C940.024 145.071 940.679 144.928 941.28 144.652C941.882 144.375 942.417 143.972 942.849 143.47C943.28 142.968 943.598 142.378 943.78 141.742C943.963 141.105 944.006 140.437 943.906 139.782C941.235 122.887 928.473 108.807 904.111 108.807C882.166 108.807 868.563 123.876 864.989 139.562C864.849 140.23 864.86 140.92 865.021 141.582C865.182 142.245 865.489 142.863 865.92 143.392C866.351 143.92 866.896 144.345 867.512 144.636C868.129 144.926 868.803 145.075 869.485 145.071H939.362Z" fill="#0066FF"/>
<path d="M1055.91 59.7714V67.631C1055.91 71.2476 1057.35 74.716 1059.91 77.2732C1062.47 79.8305 1065.93 81.2671 1069.55 81.2671H1080.23C1082.02 81.2665 1083.79 81.6186 1085.45 82.3034C1087.1 82.9882 1088.6 83.9921 1089.87 85.258C1091.14 86.5238 1092.14 88.0267 1092.83 89.6809C1093.51 91.335 1093.87 93.108 1093.87 94.8985V101.554C1093.87 103.345 1093.51 105.118 1092.83 106.772C1092.14 108.426 1091.14 109.929 1089.87 111.195C1088.6 112.46 1087.1 113.464 1085.45 114.149C1083.79 114.834 1082.02 115.186 1080.23 115.185H1069.55C1065.93 115.185 1062.47 116.622 1059.91 119.179C1057.35 121.737 1055.91 125.205 1055.91 128.822V231.178C1055.91 232.969 1055.56 234.742 1054.88 236.396C1054.19 238.051 1053.19 239.554 1051.92 240.82C1050.66 242.086 1049.15 243.091 1047.5 243.776C1045.85 244.462 1044.07 244.814 1042.28 244.814H1030.26C1026.64 244.813 1023.17 243.376 1020.62 240.819C1018.06 238.262 1016.63 234.794 1016.63 231.178V128.822C1016.63 125.205 1015.19 121.737 1012.63 119.179C1010.07 116.622 1006.61 115.185 1002.99 115.185H1001.74C998.123 115.185 994.655 113.749 992.099 111.193C989.543 108.637 988.106 105.169 988.106 101.554V94.8985C988.106 93.1084 988.459 91.3358 989.144 89.682C989.829 88.0282 990.833 86.5255 992.099 85.2597C993.365 83.9939 994.867 82.9898 996.521 82.3048C998.175 81.6197 999.948 81.2671 1001.74 81.2671H1003.01C1006.63 81.2671 1010.1 79.8305 1012.66 77.2732C1015.21 74.716 1016.65 71.2476 1016.65 67.631V58.7681C1016.65 22.1646 1040.16 0 1073.74 0C1076.63 0.00129343 1079.52 0.176788 1082.4 0.525556C1085.68 0.953259 1088.69 2.56489 1090.86 5.057C1093.03 7.54912 1094.22 10.7498 1094.2 14.0565V21.3142C1094.19 23.1228 1093.82 24.9117 1093.12 26.5776C1092.41 28.2435 1091.39 29.7534 1090.1 31.0203C1088.81 32.2871 1087.28 33.2858 1085.6 33.9587C1083.92 34.6316 1082.12 34.9653 1080.31 34.9407H1080.1C1069.68 34.9264 1055.91 39.6278 1055.91 59.7714Z" fill="#0066FF"/>
<path d="M574.551 162.874C574.551 213.247 538.616 249.831 489.585 249.831C440.894 249.831 404.959 213.228 404.959 162.874C404.959 112.835 440.894 76.2313 489.585 76.2313C538.616 76.2313 574.551 112.835 574.551 162.874ZM535.257 162.874C535.257 128.95 513.757 111.487 489.585 111.487C465.744 111.487 443.914 128.955 443.914 162.874C443.914 196.792 465.744 214.953 489.585 214.953C513.766 214.929 535.257 197.126 535.257 162.874Z" fill="#0066FF"/>
<path d="M1263.17 162.874C1263.17 213.247 1227.24 249.831 1178.21 249.831C1129.52 249.831 1093.58 213.228 1093.58 162.874C1093.58 112.835 1129.52 76.2313 1178.21 76.2313C1227.25 76.2313 1263.17 112.835 1263.17 162.874ZM1223.88 162.874C1223.88 128.95 1202.38 111.487 1178.21 111.487C1154.37 111.487 1132.54 128.955 1132.54 162.874C1132.54 196.792 1154.37 214.953 1178.21 214.953C1202.41 214.929 1223.88 197.126 1223.88 162.874Z" fill="#0066FF"/>
<path d="M1378.24 106.126C1378.23 109.507 1376.88 112.746 1374.49 115.136C1372.1 117.525 1368.86 118.871 1365.48 118.879V118.879C1335.25 118.879 1321.48 136.342 1321.48 166.901V238.388C1321.48 240.092 1320.81 241.725 1319.6 242.93C1318.4 244.135 1316.77 244.813 1315.06 244.814H1288.96C1287.25 244.814 1285.62 244.137 1284.41 242.932C1283.21 241.727 1282.53 240.092 1282.53 238.388V91.8071C1282.53 89.0117 1283.64 86.3309 1285.62 84.3542C1287.59 82.3776 1290.27 81.2671 1293.07 81.2671H1314.05C1315.75 81.2671 1317.39 81.9435 1318.59 83.1476C1319.8 84.3518 1320.47 85.9851 1320.48 87.6886V87.6886C1320.48 93.2166 1327.06 96.2362 1331.13 92.4952C1340.4 83.9762 1353.35 79.2509 1367.82 79.2509C1370.59 79.2559 1373.23 80.3562 1375.19 82.3105C1377.14 84.2648 1378.24 86.9137 1378.24 89.6762L1378.24 106.126Z" fill="#0066FF"/>
<path d="M1402.51 243.3V97.0008C1402.51 92.8279 1404.17 88.8261 1407.12 85.8754C1410.07 82.9248 1414.07 81.2672 1418.25 81.2672H1424.06C1428.23 81.2672 1432.23 82.9248 1435.18 85.8754C1438.13 88.8261 1439.79 92.8279 1439.79 97.0008V97.0008C1439.79 97.3166 1439.89 97.6247 1440.07 97.8806C1440.26 98.1366 1440.52 98.3272 1440.82 98.425C1441.12 98.5228 1441.44 98.5227 1441.74 98.4247C1442.04 98.3268 1442.3 98.136 1442.49 97.8799C1452.75 83.8377 1471.28 76.5657 1488.15 76.5657C1508.71 76.5657 1526.82 85.4861 1535.99 103.026C1536.11 103.264 1536.29 103.466 1536.51 103.611C1536.74 103.756 1537 103.839 1537.26 103.851C1537.53 103.863 1537.79 103.804 1538.03 103.68C1538.26 103.556 1538.46 103.371 1538.6 103.145C1551.34 83.422 1569.85 76.5657 1590.24 76.5657C1619.79 76.5657 1648 95.3715 1648 138.678V243.3C1648 243.499 1647.96 243.696 1647.88 243.88C1647.81 244.065 1647.7 244.232 1647.55 244.372C1647.41 244.513 1647.25 244.625 1647.06 244.7C1646.88 244.776 1646.68 244.815 1646.48 244.814H1611.9C1611.7 244.814 1611.5 244.775 1611.32 244.699C1611.13 244.623 1610.97 244.511 1610.83 244.371C1610.69 244.23 1610.57 244.063 1610.5 243.879C1610.42 243.696 1610.38 243.499 1610.38 243.3V145.071C1610.38 125.931 1600.65 111.487 1578.82 111.487C1558.33 111.487 1544.9 127.608 1544.9 147.761V243.319C1544.9 243.518 1544.86 243.715 1544.78 243.899C1544.71 244.083 1544.6 244.251 1544.46 244.391C1544.31 244.532 1544.15 244.644 1543.96 244.719C1543.78 244.795 1543.58 244.834 1543.38 244.834H1508.13C1507.73 244.834 1507.34 244.674 1507.06 244.39C1506.78 244.106 1506.62 243.721 1506.62 243.319V145.071C1506.62 128.974 1499.73 115.83 1483.84 112.376C1461.73 107.569 1441.13 125.625 1441.13 148.258V243.3C1441.13 243.499 1441.09 243.696 1441.02 243.879C1440.94 244.063 1440.83 244.23 1440.69 244.371C1440.55 244.511 1440.38 244.623 1440.2 244.699C1440.01 244.775 1439.82 244.814 1439.62 244.814H1404.04C1403.84 244.816 1403.64 244.777 1403.45 244.702C1403.27 244.626 1403.1 244.515 1402.96 244.374C1402.82 244.233 1402.7 244.066 1402.63 243.882C1402.55 243.697 1402.51 243.5 1402.51 243.3V243.3Z" fill="#0066FF"/>
</svg>
