<svg width="32" height="32" viewBox="0 0 32 32" fill="none" xmlns="http://www.w3.org/2000/svg">
<path d="M15.9867 2.66669C8.62675 2.66669 2.66675 8.64002 2.66675 16C2.66675 23.36 8.62675 29.3334 15.9867 29.3334C23.3601 29.3334 29.3334 23.36 29.3334 16C29.3334 8.64002 23.3601 2.66669 15.9867 2.66669ZM16.0001 26.6667C10.1067 26.6667 5.33341 21.8934 5.33341 16C5.33341 10.1067 10.1067 5.33335 16.0001 5.33335C21.8934 5.33335 26.6667 10.1067 26.6667 16C26.6667 21.8934 21.8934 26.6667 16.0001 26.6667ZM20.6667 14.6667C21.7734 14.6667 22.6667 13.7734 22.6667 12.6667C22.6667 11.56 21.7734 10.6667 20.6667 10.6667C19.5601 10.6667 18.6667 11.56 18.6667 12.6667C18.6667 13.7734 19.5601 14.6667 20.6667 14.6667ZM11.3334 14.6667C12.4401 14.6667 13.3334 13.7734 13.3334 12.6667C13.3334 11.56 12.4401 10.6667 11.3334 10.6667C10.2267 10.6667 9.33341 11.56 9.33341 12.6667C9.33341 13.7734 10.2267 14.6667 11.3334 14.6667ZM16.0001 18.6667C12.8934 18.6667 10.2534 20.6134 9.18675 23.3334H22.8134C21.7467 20.6134 19.1067 18.6667 16.0001 18.6667Z" fill="#F44336"/>
</svg>
