<svg width="32" height="32" viewBox="0 0 32 32" fill="none" xmlns="http://www.w3.org/2000/svg">
<path d="M16.3333 3C14.5824 3 12.8486 3.34488 11.2309 4.01494C9.61321 4.685 8.14336 5.66713 6.90524 6.90524C4.40476 9.40573 3 12.7971 3 16.3333C3 19.8696 4.40476 23.2609 6.90524 25.7614C8.14336 26.9995 9.61321 27.9817 11.2309 28.6517C12.8486 29.3218 14.5824 29.6667 16.3333 29.6667C19.8696 29.6667 23.2609 28.2619 25.7614 25.7614C28.2619 23.2609 29.6667 19.8696 29.6667 16.3333C29.6667 14.5824 29.3218 12.8486 28.6517 11.2309C27.9817 9.61321 26.9995 8.14336 25.7614 6.90524C24.5233 5.66713 23.0535 4.685 21.4358 4.01494C19.8181 3.34488 18.0843 3 16.3333 3M16.3333 27C13.5044 27 10.7912 25.8762 8.79086 23.8758C6.79047 21.8754 5.66667 19.1623 5.66667 16.3333C5.66667 13.5044 6.79047 10.7912 8.79086 8.79086C10.7912 6.79047 13.5044 5.66667 16.3333 5.66667C19.1623 5.66667 21.8754 6.79047 23.8758 8.79086C25.8762 10.7912 27 13.5044 27 16.3333C27 19.1623 25.8762 21.8754 23.8758 23.8758C21.8754 25.8762 19.1623 27 16.3333 27M11.6667 15C11.1362 15 10.6275 14.7893 10.2525 14.4142C9.87738 14.0391 9.66667 13.5304 9.66667 13C9.66667 12.4696 9.87738 11.9609 10.2525 11.5858C10.6275 11.2107 11.1362 11 11.6667 11C12.1971 11 12.7058 11.2107 13.0809 11.5858C13.456 11.9609 13.6667 12.4696 13.6667 13C13.6667 13.5304 13.456 14.0391 13.0809 14.4142C12.7058 14.7893 12.1971 15 11.6667 15ZM23 13C23 13.5304 22.7893 14.0391 22.4142 14.4142C22.0391 14.7893 21.5304 15 21 15C20.4696 15 19.9609 14.7893 19.5858 14.4142C19.2107 14.0391 19 13.5304 19 13C19 12.4696 19.2107 11.9609 19.5858 11.5858C19.9609 11.2107 20.4696 11 21 11C21.5304 11 22.0391 11.2107 22.4142 11.5858C22.7893 11.9609 23 12.4696 23 13M21.6667 19V21.6667H11V19H21.6667Z" fill="#616161"/>
</svg>
